<svg width="91" height="89" viewBox="0 0 91 89" fill="none" xmlns="http://www.w3.org/2000/svg">
<path d="M45.2348 87.8252L88.5126 45.5005L89.3052 44.7074C89.6956 44.3167 89.6954 43.6835 89.3047 43.2931L57.1796 11.1912C56.8 10.8118 56.1885 10.7998 55.7942 11.164L50.7667 15.8082C50.3495 16.1936 50.3366 16.8486 50.7384 17.2501L76.8001 43.2931C77.1926 43.6852 77.1907 44.3219 76.796 44.7118L39.2419 81.8112C38.8472 82.2011 38.8454 82.8378 39.2379 83.23L43.8288 87.8176C44.2163 88.2048 44.8432 88.2082 45.2348 87.8252Z" fill="#DB6479"/>
<path d="M44.793 0.690946L1.5 43L0.707107 43.7929C0.316582 44.1834 0.316583 44.8166 0.707107 45.2071L32.8206 77.3206C33.2001 77.7001 33.8116 77.7124 34.206 77.3483L39.2352 72.706C39.6526 72.3207 39.6657 71.6657 39.264 71.264L13.2117 45.2117C12.8194 44.8194 12.8214 44.1827 13.2163 43.7929L50.7837 6.70708C51.1786 6.31731 51.1806 5.68062 50.7883 5.28832L46.199 0.699026C45.8117 0.311672 45.1848 0.30807 44.793 0.690946Z" fill="#DB6479"/>
<path d="M38 26C36.8 31.2 30.1667 32.1667 27 32L26 37H34L29 61H35.5L43 26H38Z" fill="#393938"/>
<path d="M55.5 61H36.5H36L37 57.5L38.5 54C41 50 44.2115 47.2245 44.5 47C49 43.5 52.7218 40.4511 53.5 39.5C58 34 55.5 31.2728 54 31C50 30.2728 48.5 35 48 38H41.5C42.7 32.8 45.3333 29.5 46.5 28.5C50 25.5 52.5 25.6667 54 25.5C59.6 25.1 61.6667 28.6667 62 30.5C63.2 38.9 57.8333 44 55 45.5C49.8 48.3 46.1667 53.3334 45 55.5H57L55.5 61Z" fill="#393938"/>
</svg>
