<svg width="441" height="89" viewBox="0 0 441 89" fill="none" xmlns="http://www.w3.org/2000/svg">
<path d="M3.836 55.224C3.31333 55.224 2.912 55.0747 2.632 54.776C2.352 54.4773 2.212 54.0667 2.212 53.544V36.716C2.212 36.1747 2.36133 35.764 2.66 35.484C2.95867 35.1853 3.36933 35.036 3.892 35.036C4.35867 35.036 4.72267 35.1293 4.984 35.316C5.264 35.484 5.516 35.7827 5.74 36.212L12.656 49.008H11.76L18.676 36.212C18.9 35.7827 19.1427 35.484 19.404 35.316C19.6653 35.1293 20.0293 35.036 20.496 35.036C21.0187 35.036 21.42 35.1853 21.7 35.484C21.98 35.764 22.12 36.1747 22.12 36.716V53.544C22.12 54.0667 21.98 54.4773 21.7 54.776C21.4387 55.0747 21.0373 55.224 20.496 55.224C19.9733 55.224 19.572 55.0747 19.292 54.776C19.012 54.4773 18.872 54.0667 18.872 53.544V40.58H19.488L13.608 51.304C13.4213 51.6213 13.2253 51.8547 13.02 52.004C12.8147 52.1533 12.5347 52.228 12.18 52.228C11.8253 52.228 11.536 52.1533 11.312 52.004C11.088 51.836 10.892 51.6027 10.724 51.304L4.788 40.552H5.46V53.544C5.46 54.0667 5.32 54.4773 5.04 54.776C4.77867 55.0747 4.37733 55.224 3.836 55.224ZM26.6606 55.224C26.2126 55.224 25.8486 55.1213 25.5686 54.916C25.3073 54.7107 25.1486 54.44 25.0926 54.104C25.0366 53.7493 25.1019 53.3573 25.2886 52.928L32.6806 36.548C32.9233 36.0067 33.2126 35.624 33.5486 35.4C33.9033 35.1573 34.3046 35.036 34.7526 35.036C35.1819 35.036 35.5646 35.1573 35.9006 35.4C36.2553 35.624 36.5539 36.0067 36.7966 36.548L44.2166 52.928C44.4219 53.3573 44.4966 53.7493 44.4406 54.104C44.3846 54.4587 44.2259 54.7387 43.9646 54.944C43.7033 55.1307 43.3579 55.224 42.9286 55.224C42.4059 55.224 41.9953 55.1027 41.6966 54.86C41.4166 54.5987 41.1646 54.2067 40.9406 53.684L39.1206 49.456L40.6326 50.436H28.8166L30.3286 49.456L28.5366 53.684C28.2939 54.2253 28.0419 54.6173 27.7806 54.86C27.5193 55.1027 27.1459 55.224 26.6606 55.224ZM34.6966 39.152L30.7766 48.476L30.0486 47.58H39.4006L38.7006 48.476L34.7526 39.152H34.6966ZM55.8283 55.28C53.7749 55.28 52.0109 54.8693 50.5363 54.048C49.0803 53.208 47.9603 52.032 47.1763 50.52C46.3923 48.9893 46.0003 47.188 46.0003 45.116C46.0003 43.5667 46.2243 42.176 46.6723 40.944C47.1203 39.6933 47.7643 38.6293 48.6043 37.752C49.4443 36.856 50.4709 36.1747 51.6843 35.708C52.9163 35.2227 54.2976 34.98 55.8283 34.98C56.8549 34.98 57.8629 35.1107 58.8523 35.372C59.8416 35.6333 60.7096 36.0067 61.4563 36.492C61.8483 36.7347 62.1096 37.0333 62.2403 37.388C62.3709 37.724 62.3989 38.06 62.3243 38.396C62.2496 38.7133 62.0909 38.984 61.8483 39.208C61.6243 39.432 61.3349 39.5627 60.9803 39.6C60.6443 39.6187 60.2709 39.4973 59.8603 39.236C59.2816 38.8627 58.6563 38.592 57.9843 38.424C57.3123 38.256 56.6309 38.172 55.9403 38.172C54.6149 38.172 53.4949 38.4427 52.5803 38.984C51.6656 39.5253 50.9749 40.3093 50.5083 41.336C50.0416 42.3627 49.8083 43.6227 49.8083 45.116C49.8083 46.5907 50.0416 47.8507 50.5083 48.896C50.9749 49.9413 51.6656 50.7347 52.5803 51.276C53.4949 51.8173 54.6149 52.088 55.9403 52.088C56.6496 52.088 57.3496 52.004 58.0403 51.836C58.7309 51.6493 59.3843 51.3693 60.0003 50.996C60.4109 50.7533 60.7749 50.6507 61.0923 50.688C61.4283 50.7067 61.7083 50.8187 61.9323 51.024C62.1563 51.2293 62.3056 51.4907 62.3803 51.808C62.4549 52.1067 62.4363 52.424 62.3243 52.76C62.2123 53.0773 61.9883 53.3573 61.6523 53.6C60.9056 54.1413 60.0096 54.5613 58.9643 54.86C57.9376 55.14 56.8923 55.28 55.8283 55.28ZM71.9541 55.224C71.3754 55.224 70.9274 55.0653 70.6101 54.748C70.3114 54.412 70.1621 53.9547 70.1621 53.376V38.256H64.7021C64.2168 38.256 63.8341 38.1253 63.5541 37.864C63.2928 37.584 63.1621 37.2107 63.1621 36.744C63.1621 36.2587 63.2928 35.8947 63.5541 35.652C63.8341 35.3907 64.2168 35.26 64.7021 35.26H79.2061C79.6914 35.26 80.0648 35.3907 80.3261 35.652C80.6061 35.8947 80.7461 36.2587 80.7461 36.744C80.7461 37.2107 80.6061 37.584 80.3261 37.864C80.0648 38.1253 79.6914 38.256 79.2061 38.256H73.7461V53.376C73.7461 53.9547 73.5968 54.412 73.2981 54.748C72.9994 55.0653 72.5514 55.224 71.9541 55.224ZM84.6967 55C84.0807 55 83.6047 54.8413 83.2687 54.524C82.9514 54.188 82.7927 53.712 82.7927 53.096V37.164C82.7927 36.548 82.9514 36.0813 83.2687 35.764C83.6047 35.428 84.0807 35.26 84.6967 35.26H94.6927C95.1594 35.26 95.5141 35.3813 95.7567 35.624C96.0181 35.8667 96.1487 36.212 96.1487 36.66C96.1487 37.1267 96.0181 37.4907 95.7567 37.752C95.5141 37.9947 95.1594 38.116 94.6927 38.116H86.2367V43.548H94.0767C94.5621 43.548 94.9261 43.6693 95.1687 43.912C95.4114 44.1547 95.5327 44.5093 95.5327 44.976C95.5327 45.4427 95.4114 45.7973 95.1687 46.04C94.9261 46.2827 94.5621 46.404 94.0767 46.404H86.2367V52.144H94.6927C95.1594 52.144 95.5141 52.2653 95.7567 52.508C96.0181 52.7507 96.1487 53.1053 96.1487 53.572C96.1487 54.0387 96.0181 54.3933 95.7567 54.636C95.5141 54.8787 95.1594 55 94.6927 55H84.6967ZM101.292 55.224C100.713 55.224 100.265 55.0653 99.9478 54.748C99.6491 54.412 99.4998 53.9547 99.4998 53.376V37.08C99.4998 36.4827 99.6584 36.0347 99.9758 35.736C100.293 35.4187 100.741 35.26 101.32 35.26H108.068C110.233 35.26 111.904 35.8013 113.08 36.884C114.256 37.9667 114.844 39.4787 114.844 41.42C114.844 43.3613 114.256 44.8827 113.08 45.984C111.904 47.0667 110.233 47.608 108.068 47.608H103.084V53.376C103.084 53.9547 102.934 54.412 102.636 54.748C102.337 55.0653 101.889 55.224 101.292 55.224ZM103.084 44.78H107.508C108.777 44.78 109.738 44.5 110.392 43.94C111.045 43.3613 111.372 42.5213 111.372 41.42C111.372 40.3187 111.045 39.488 110.392 38.928C109.738 38.368 108.777 38.088 107.508 38.088H103.084V44.78ZM126.676 55.28C124.623 55.28 122.859 54.8693 121.384 54.048C119.928 53.208 118.808 52.032 118.024 50.52C117.24 48.9893 116.848 47.188 116.848 45.116C116.848 43.5667 117.072 42.176 117.52 40.944C117.968 39.6933 118.612 38.6293 119.452 37.752C120.292 36.856 121.319 36.1747 122.532 35.708C123.764 35.2227 125.145 34.98 126.676 34.98C127.703 34.98 128.711 35.1107 129.7 35.372C130.689 35.6333 131.557 36.0067 132.304 36.492C132.696 36.7347 132.957 37.0333 133.088 37.388C133.219 37.724 133.247 38.06 133.172 38.396C133.097 38.7133 132.939 38.984 132.696 39.208C132.472 39.432 132.183 39.5627 131.828 39.6C131.492 39.6187 131.119 39.4973 130.708 39.236C130.129 38.8627 129.504 38.592 128.832 38.424C128.16 38.256 127.479 38.172 126.788 38.172C125.463 38.172 124.343 38.4427 123.428 38.984C122.513 39.5253 121.823 40.3093 121.356 41.336C120.889 42.3627 120.656 43.6227 120.656 45.116C120.656 46.5907 120.889 47.8507 121.356 48.896C121.823 49.9413 122.513 50.7347 123.428 51.276C124.343 51.8173 125.463 52.088 126.788 52.088C127.497 52.088 128.197 52.004 128.888 51.836C129.579 51.6493 130.232 51.3693 130.848 50.996C131.259 50.7533 131.623 50.6507 131.94 50.688C132.276 50.7067 132.556 50.8187 132.78 51.024C133.004 51.2293 133.153 51.4907 133.228 51.808C133.303 52.1067 133.284 52.424 133.172 52.76C133.06 53.0773 132.836 53.3573 132.5 53.6C131.753 54.1413 130.857 54.5613 129.812 54.86C128.785 55.14 127.74 55.28 126.676 55.28ZM138.315 55.224C137.737 55.224 137.289 55.0653 136.971 54.748C136.673 54.412 136.523 53.9547 136.523 53.376V36.856C136.523 36.2587 136.673 35.8107 136.971 35.512C137.289 35.1947 137.737 35.036 138.315 35.036C138.894 35.036 139.333 35.1947 139.631 35.512C139.949 35.8107 140.107 36.2587 140.107 36.856V43.632H143.299L142.599 44.108L147.751 35.96C148.013 35.568 148.311 35.3067 148.647 35.176C149.002 35.0453 149.347 35.0173 149.683 35.092C150.019 35.1667 150.309 35.3253 150.551 35.568C150.794 35.8107 150.925 36.1093 150.943 36.464C150.981 36.8187 150.869 37.2013 150.607 37.612L145.903 44.808L144.503 43.772C145.717 43.9587 146.743 44.3973 147.583 45.088C148.423 45.7787 149.142 46.74 149.739 47.972L152.035 52.676C152.278 53.1427 152.353 53.5627 152.259 53.936C152.185 54.3093 151.998 54.608 151.699 54.832C151.419 55.0373 151.093 55.1587 150.719 55.196C150.365 55.2333 150.01 55.168 149.655 55C149.319 54.8133 149.049 54.5053 148.843 54.076L146.631 49.316C146.183 48.3453 145.642 47.6547 145.007 47.244C144.391 46.8333 143.617 46.628 142.683 46.628H140.107V53.376C140.107 53.9547 139.958 54.412 139.659 54.748C139.361 55.0653 138.913 55.224 138.315 55.224ZM155.204 55.224C154.756 55.224 154.392 55.1213 154.112 54.916C153.85 54.7107 153.692 54.44 153.636 54.104C153.58 53.7493 153.645 53.3573 153.832 52.928L161.224 36.548C161.466 36.0067 161.756 35.624 162.092 35.4C162.446 35.1573 162.848 35.036 163.296 35.036C163.725 35.036 164.108 35.1573 164.444 35.4C164.798 35.624 165.097 36.0067 165.34 36.548L172.76 52.928C172.965 53.3573 173.04 53.7493 172.984 54.104C172.928 54.4587 172.769 54.7387 172.508 54.944C172.246 55.1307 171.901 55.224 171.472 55.224C170.949 55.224 170.538 55.1027 170.24 54.86C169.96 54.5987 169.708 54.2067 169.484 53.684L167.664 49.456L169.176 50.436H157.36L158.872 49.456L157.08 53.684C156.837 54.2253 156.585 54.6173 156.324 54.86C156.062 55.1027 155.689 55.224 155.204 55.224ZM163.24 39.152L159.32 48.476L158.592 47.58H167.944L167.244 48.476L163.296 39.152H163.24ZM189.032 55.224C188.453 55.224 188.005 55.0653 187.688 54.748C187.389 54.412 187.24 53.9547 187.24 53.376V47.104H184.832C184.384 47.104 183.982 47.1507 183.628 47.244C183.273 47.3373 182.956 47.496 182.676 47.72C182.396 47.944 182.144 48.2707 181.919 48.7L178.952 54.132C178.709 54.58 178.41 54.8787 178.056 55.028C177.701 55.196 177.346 55.2427 176.992 55.168C176.637 55.112 176.329 54.9627 176.068 54.72C175.806 54.4773 175.638 54.1693 175.564 53.796C175.508 53.4227 175.601 53.012 175.844 52.564L177.832 48.924C178.242 48.1587 178.737 47.58 179.316 47.188C179.894 46.796 180.566 46.6 181.332 46.6H182.284L182.228 47.02C180.081 47.02 178.41 46.5067 177.216 45.48C176.04 44.4347 175.452 42.9973 175.452 41.168C175.452 39.9173 175.713 38.8533 176.236 37.976C176.758 37.0987 177.524 36.4267 178.532 35.96C179.558 35.4933 180.79 35.26 182.228 35.26H188.92C189.536 35.26 190.002 35.428 190.32 35.764C190.656 36.0813 190.824 36.548 190.824 37.164V53.376C190.824 53.9547 190.665 54.412 190.348 54.748C190.049 55.0653 189.61 55.224 189.032 55.224ZM182.844 44.444H187.24V38.088H182.844C181.556 38.088 180.576 38.3587 179.904 38.9C179.25 39.4227 178.924 40.2067 178.924 41.252C178.924 42.316 179.25 43.1187 179.904 43.66C180.576 44.1827 181.556 44.444 182.844 44.444ZM204.514 55.224C203.936 55.224 203.488 55.0653 203.17 54.748C202.872 54.412 202.722 53.9547 202.722 53.376V36.856C202.722 36.2587 202.872 35.8107 203.17 35.512C203.488 35.1947 203.936 35.036 204.514 35.036C205.093 35.036 205.532 35.1947 205.83 35.512C206.148 35.8107 206.306 36.2587 206.306 36.856V43.632H209.498L208.798 44.108L213.95 35.96C214.212 35.568 214.51 35.3067 214.846 35.176C215.201 35.0453 215.546 35.0173 215.882 35.092C216.218 35.1667 216.508 35.3253 216.75 35.568C216.993 35.8107 217.124 36.1093 217.142 36.464C217.18 36.8187 217.068 37.2013 216.806 37.612L212.102 44.808L210.702 43.772C211.916 43.9587 212.942 44.3973 213.782 45.088C214.622 45.7787 215.341 46.74 215.938 47.972L218.234 52.676C218.477 53.1427 218.552 53.5627 218.458 53.936C218.384 54.3093 218.197 54.608 217.898 54.832C217.618 55.0373 217.292 55.1587 216.918 55.196C216.564 55.2333 216.209 55.168 215.854 55C215.518 54.8133 215.248 54.5053 215.042 54.076L212.83 49.316C212.382 48.3453 211.841 47.6547 211.206 47.244C210.59 46.8333 209.816 46.628 208.882 46.628H206.306V53.376C206.306 53.9547 206.157 54.412 205.858 54.748C205.56 55.0653 205.112 55.224 204.514 55.224ZM223.409 55.224C222.83 55.224 222.382 55.0653 222.065 54.748C221.766 54.412 221.617 53.9547 221.617 53.376V37.08C221.617 36.4827 221.776 36.0347 222.093 35.736C222.41 35.4187 222.858 35.26 223.437 35.26H230.185C232.35 35.26 234.021 35.8013 235.197 36.884C236.373 37.9667 236.961 39.4787 236.961 41.42C236.961 43.3613 236.373 44.8827 235.197 45.984C234.021 47.0667 232.35 47.608 230.185 47.608H225.201V53.376C225.201 53.9547 225.052 54.412 224.753 54.748C224.454 55.0653 224.006 55.224 223.409 55.224ZM225.201 44.78H229.625C230.894 44.78 231.856 44.5 232.509 43.94C233.162 43.3613 233.489 42.5213 233.489 41.42C233.489 40.3187 233.162 39.488 232.509 38.928C231.856 38.368 230.894 38.088 229.625 38.088H225.201V44.78ZM237.973 55.224C237.525 55.224 237.161 55.1213 236.881 54.916C236.62 54.7107 236.461 54.44 236.405 54.104C236.349 53.7493 236.414 53.3573 236.601 52.928L243.993 36.548C244.236 36.0067 244.525 35.624 244.861 35.4C245.216 35.1573 245.617 35.036 246.065 35.036C246.494 35.036 246.877 35.1573 247.213 35.4C247.568 35.624 247.866 36.0067 248.109 36.548L255.529 52.928C255.734 53.3573 255.809 53.7493 255.753 54.104C255.697 54.4587 255.538 54.7387 255.277 54.944C255.016 55.1307 254.67 55.224 254.241 55.224C253.718 55.224 253.308 55.1027 253.009 54.86C252.729 54.5987 252.477 54.2067 252.253 53.684L250.433 49.456L251.945 50.436H240.129L241.641 49.456L239.849 53.684C239.606 54.2253 239.354 54.6173 239.093 54.86C238.832 55.1027 238.458 55.224 237.973 55.224ZM246.009 39.152L242.089 48.476L241.361 47.58H250.713L250.013 48.476L246.065 39.152H246.009ZM267.141 55.28C265.087 55.28 263.323 54.8693 261.849 54.048C260.393 53.208 259.273 52.032 258.489 50.52C257.705 48.9893 257.313 47.188 257.313 45.116C257.313 43.5667 257.537 42.176 257.985 40.944C258.433 39.6933 259.077 38.6293 259.917 37.752C260.757 36.856 261.783 36.1747 262.997 35.708C264.229 35.2227 265.61 34.98 267.141 34.98C268.167 34.98 269.175 35.1107 270.165 35.372C271.154 35.6333 272.022 36.0067 272.769 36.492C273.161 36.7347 273.422 37.0333 273.553 37.388C273.683 37.724 273.711 38.06 273.637 38.396C273.562 38.7133 273.403 38.984 273.161 39.208C272.937 39.432 272.647 39.5627 272.293 39.6C271.957 39.6187 271.583 39.4973 271.173 39.236C270.594 38.8627 269.969 38.592 269.297 38.424C268.625 38.256 267.943 38.172 267.253 38.172C265.927 38.172 264.807 38.4427 263.893 38.984C262.978 39.5253 262.287 40.3093 261.821 41.336C261.354 42.3627 261.121 43.6227 261.121 45.116C261.121 46.5907 261.354 47.8507 261.821 48.896C262.287 49.9413 262.978 50.7347 263.893 51.276C264.807 51.8173 265.927 52.088 267.253 52.088C267.962 52.088 268.662 52.004 269.353 51.836C270.043 51.6493 270.697 51.3693 271.313 50.996C271.723 50.7533 272.087 50.6507 272.405 50.688C272.741 50.7067 273.021 50.8187 273.245 51.024C273.469 51.2293 273.618 51.4907 273.693 51.808C273.767 52.1067 273.749 52.424 273.637 52.76C273.525 53.0773 273.301 53.3573 272.965 53.6C272.218 54.1413 271.322 54.5613 270.277 54.86C269.25 55.14 268.205 55.28 267.141 55.28ZM285.481 55.28C283.577 55.28 281.906 54.86 280.469 54.02C279.05 53.18 277.949 52.004 277.165 50.492C276.381 48.9613 275.989 47.1693 275.989 45.116C275.989 43.5667 276.213 42.176 276.661 40.944C277.109 39.6933 277.743 38.6293 278.565 37.752C279.405 36.856 280.403 36.1747 281.561 35.708C282.737 35.2227 284.043 34.98 285.481 34.98C287.403 34.98 289.074 35.4 290.493 36.24C291.911 37.0613 293.013 38.228 293.797 39.74C294.581 41.252 294.973 43.0347 294.973 45.088C294.973 46.6373 294.749 48.0373 294.301 49.288C293.853 50.5387 293.209 51.612 292.369 52.508C291.547 53.404 290.549 54.0947 289.373 54.58C288.215 55.0467 286.918 55.28 285.481 55.28ZM285.481 52.2C286.694 52.2 287.721 51.92 288.561 51.36C289.419 50.8 290.073 49.988 290.521 48.924C290.987 47.86 291.221 46.5907 291.221 45.116C291.221 42.876 290.717 41.14 289.709 39.908C288.719 38.676 287.31 38.06 285.481 38.06C284.286 38.06 283.259 38.34 282.401 38.9C281.542 39.4413 280.879 40.244 280.413 41.308C279.965 42.3533 279.741 43.6227 279.741 45.116C279.741 47.3373 280.245 49.0733 281.253 50.324C282.261 51.5747 283.67 52.2 285.481 52.2ZM303.966 55.224C303.387 55.224 302.939 55.0653 302.622 54.748C302.323 54.412 302.174 53.9547 302.174 53.376V38.256H296.714C296.228 38.256 295.846 38.1253 295.566 37.864C295.304 37.584 295.174 37.2107 295.174 36.744C295.174 36.2587 295.304 35.8947 295.566 35.652C295.846 35.3907 296.228 35.26 296.714 35.26H311.218C311.703 35.26 312.076 35.3907 312.338 35.652C312.618 35.8947 312.758 36.2587 312.758 36.744C312.758 37.2107 312.618 37.584 312.338 37.864C312.076 38.1253 311.703 38.256 311.218 38.256H305.758V53.376C305.758 53.9547 305.608 54.412 305.31 54.748C305.011 55.0653 304.563 55.224 303.966 55.224ZM316.708 55C316.092 55 315.616 54.8413 315.28 54.524C314.963 54.188 314.804 53.712 314.804 53.096V36.884C314.804 36.2867 314.954 35.8293 315.252 35.512C315.57 35.1947 316.018 35.036 316.596 35.036C317.175 35.036 317.614 35.1947 317.912 35.512C318.23 35.8293 318.388 36.2867 318.388 36.884V43.492H322.896C324.296 43.492 325.5 43.716 326.508 44.164C327.516 44.5933 328.282 45.2373 328.804 46.096C329.346 46.936 329.616 47.9813 329.616 49.232C329.616 51.0987 329.019 52.5267 327.824 53.516C326.648 54.5053 325.006 55 322.896 55H316.708ZM318.388 52.144H322.448C323.718 52.144 324.651 51.9107 325.248 51.444C325.846 50.9587 326.144 50.2213 326.144 49.232C326.144 48.2427 325.846 47.5147 325.248 47.048C324.651 46.5813 323.718 46.348 322.448 46.348H318.388V52.144ZM333.928 55.224C333.35 55.224 332.902 55.0653 332.584 54.748C332.286 54.412 332.136 53.9547 332.136 53.376V36.884C332.136 36.2867 332.286 35.8293 332.584 35.512C332.902 35.1947 333.35 35.036 333.928 35.036C334.507 35.036 334.946 35.1947 335.244 35.512C335.562 35.8293 335.72 36.2867 335.72 36.884V53.376C335.72 53.9547 335.571 54.412 335.272 54.748C334.974 55.0653 334.526 55.224 333.928 55.224Z" fill="#393938"/>
<path d="M395.235 87.8252L438.513 45.5005L439.305 44.7074C439.696 44.3167 439.696 43.6835 439.305 43.2931L407.18 11.1912C406.8 10.8118 406.189 10.7998 405.794 11.164L400.767 15.8082C400.35 16.1936 400.337 16.8486 400.739 17.2501L426.8 43.2931C427.193 43.6852 427.191 44.3219 426.796 44.7118L389.242 81.8112C388.847 82.2011 388.846 82.8378 389.238 83.23L393.829 87.8176C394.217 88.2048 394.843 88.2082 395.235 87.8252Z" fill="#DB6479"/>
<path d="M394.793 0.690946L351.5 43L350.707 43.7929C350.317 44.1834 350.317 44.8166 350.707 45.2071L382.821 77.3206C383.2 77.7001 383.812 77.7124 384.206 77.3483L389.235 72.706C389.653 72.3207 389.666 71.6657 389.264 71.264L363.212 45.2117C362.819 44.8194 362.821 44.1827 363.216 43.7929L400.784 6.70708C401.179 6.31731 401.181 5.68062 400.788 5.28832L396.199 0.699026C395.812 0.311672 395.185 0.30807 394.793 0.690946Z" fill="#DB6479"/>
<path d="M388 26C386.8 31.2 380.167 32.1667 377 32L376 37H384L379 61H385.5L393 26H388Z" fill="#393938"/>
<path d="M405.5 61H386.5H386L387 57.5L388.5 54C391 50 394.211 47.2245 394.5 47C399 43.5 402.722 40.4511 403.5 39.5C408 34 405.5 31.2728 404 31C400 30.2728 398.5 35 398 38H391.5C392.7 32.8 395.333 29.5 396.5 28.5C400 25.5 402.5 25.6667 404 25.5C409.6 25.1 411.667 28.6667 412 30.5C413.2 38.9 407.833 44 405 45.5C399.8 48.3 396.167 53.3334 395 55.5H407L405.5 61Z" fill="#393938"/>
</svg>
