<svg width="843" height="829" viewBox="0 0 843 829" fill="none" xmlns="http://www.w3.org/2000/svg">
<path d="M420.309 825.042L828.463 425.877L838.963 415.369C840.915 413.416 840.914 410.25 838.961 408.298L532.228 101.787C530.33 99.8899 527.273 99.8299 525.301 101.651L471.834 151.041C469.748 152.968 469.684 156.243 471.693 158.25L721.94 408.318C723.902 410.278 723.893 413.462 721.92 415.411L364.176 768.823C362.203 770.772 362.193 773.956 364.156 775.917L413.279 825.004C415.216 826.941 418.351 826.957 420.309 825.042Z" fill="#DB6479"/>
<path d="M422.337 3.45474L14.0397 402.473L3.53553 412.977C1.58291 414.93 1.58291 418.095 3.53553 420.048L310.157 726.67C312.055 728.567 315.112 728.629 317.084 726.808L370.569 677.438C372.656 675.511 372.721 672.236 370.713 670.228L120.556 420.071C118.595 418.109 118.605 414.926 120.579 412.977L478.45 59.6944C480.424 57.7455 480.434 54.5621 478.473 52.6006L429.367 3.49513C427.431 1.55836 424.296 1.54036 422.337 3.45474Z" fill="#DB6479"/>
<path d="M356.674 243.356C345.442 292.027 283.355 301.075 253.715 299.515L244.356 346.314H319.234L272.435 570.95H333.274L403.473 243.356H356.674Z" fill="#393938"/>
<path d="M520.471 570.95H342.634H337.954L347.314 538.19L361.353 505.431C384.753 467.992 414.812 442.013 417.512 439.912C459.632 407.153 494.467 378.616 501.751 369.714C543.87 318.234 520.471 292.708 506.431 290.155C468.991 283.348 454.952 327.594 450.272 355.674H389.433C400.665 307.003 425.312 276.115 436.232 266.755C468.991 238.676 492.391 240.236 506.431 238.676C558.846 234.932 578.189 268.315 581.309 285.475C592.541 364.098 542.31 411.833 515.791 425.873C467.12 452.08 433.112 499.191 422.192 519.471H534.51L520.471 570.95Z" fill="#393938"/>
</svg>
