<svg width="2111" height="1084" viewBox="0 0 2111 1084" fill="none" xmlns="http://www.w3.org/2000/svg">
<path d="M73.9877 340.881C143.868 261.743 324.229 167.025 486.626 421.252C689.623 739.036 752.904 320.3 925.464 415.104C1098.02 509.908 1029.63 481.034 1254.35 338.516C1479.06 195.999 1381.29 638.446 1718.65 428.951C1988.54 261.355 2062.45 477.656 2065.67 606.756" stroke="#DB6479" stroke-width="6"/>
<path d="M160.122 628.497C202.2 728.427 360.699 830.117 628.577 591.266C896.455 352.416 1053.52 601.683 1098.57 756.172C1162.91 809.388 1320 914.183 1463.12 753.812C1606.24 593.441 1827.15 831.928 1919.72 971.218" stroke="white"/>
<path d="M77.9517 355.294C145.507 282.304 319.666 194.496 478.062 437.001C675.124 740.036 740.468 339.607 911.189 424.209C1088.29 503.125 1030.63 487.496 1246.79 359.121C1463.87 225.924 1378.24 652.292 1706.35 445.137C1970.2 277.885 2051.11 495.243 2058.58 624.828" stroke="#DD6B7F" stroke-width="5.7619"/>
<path d="M81.9176 369.696C147.147 302.854 315.106 221.956 469.5 452.739C660.627 741.026 728.034 358.903 896.916 433.304C1078.55 496.332 1031.63 493.948 1239.24 379.716C1448.68 255.84 1375.18 666.129 1694.04 461.313C1951.86 294.405 2039.77 512.82 2051.49 642.89" stroke="#DE7386" stroke-width="5.52381"/>
<path d="M85.8857 384.087C148.789 323.393 310.547 249.406 460.94 468.466C646.133 742.004 715.602 378.189 882.645 442.388C1068.82 489.527 1032.64 500.388 1231.68 400.3C1433.49 285.744 1372.13 679.955 1681.74 477.478C1933.52 310.914 2028.43 530.385 2044.41 660.94" stroke="#E07A8C" stroke-width="5.28571"/>
<path d="M89.8573 398.465C150.435 343.918 305.992 276.842 452.384 484.18C631.642 742.969 703.174 397.46 868.377 451.459C1059.09 482.709 1033.64 506.815 1224.14 420.87C1418.3 315.634 1369.08 693.767 1669.44 493.629C1915.19 327.409 2017.09 547.936 2037.33 678.977" stroke="#E28293" stroke-width="5.04762"/>
<path d="M93.8309 412.828C152.083 364.429 301.439 304.263 443.83 499.879C617.153 743.919 690.747 416.717 854.112 460.514C1049.37 475.876 1034.65 513.227 1216.59 441.425C1403.12 345.51 1366.03 707.564 1657.15 509.765C1896.85 343.89 2005.76 565.473 2030.25 697" stroke="#E48999" stroke-width="4.80952"/>
<path d="M97.8087 427.173C153.735 384.922 296.891 331.667 435.28 515.56C602.668 744.851 678.325 435.957 839.85 469.552C1039.64 469.026 1035.67 519.621 1209.05 461.963C1387.94 375.369 1362.99 721.344 1644.85 525.884C1878.52 360.353 1994.43 582.993 2023.18 715.004" stroke="#E5909F" stroke-width="4.57143"/>
<path d="M101.79 441.499C155.391 405.395 292.346 359.051 426.734 531.222C588.188 745.764 665.907 455.176 825.593 478.57C1029.93 462.156 1036.68 525.996 1201.51 482.48C1372.77 405.207 1359.95 735.103 1632.57 541.983C1860.2 376.796 1983.11 600.492 2016.11 732.989" stroke="#E798A6" stroke-width="4.33333"/>
<path d="M105.776 455.8C157.05 425.844 287.804 386.41 418.191 546.859C573.71 746.652 653.492 474.371 811.339 487.564C1020.21 455.261 1037.71 532.346 1193.98 502.974C1357.6 435.021 1356.92 748.839 1620.28 558.058C1841.88 393.215 1971.79 617.968 2009.04 750.949" stroke="#E99FAC" stroke-width="4.09524"/>
<path d="M109.766 470.073C158.715 446.265 283.269 413.742 409.654 562.468C559.238 747.512 641.083 493.539 797.09 496.53C1010.5 448.339 1038.73 538.669 1186.45 523.44C1342.43 464.808 1353.89 762.547 1608 574.105C1823.56 409.605 1960.47 635.415 2001.98 768.882" stroke="#EAA6B2" stroke-width="3.85714"/>
<path d="M113.764 484.313C160.386 466.652 278.739 441.04 401.123 578.044C544.773 748.339 628.68 512.672 782.849 505.462C1000.8 441.383 1039.77 544.957 1178.92 543.872C1327.27 494.56 1350.86 776.221 1595.73 590.118C1805.25 425.962 1949.16 652.828 1994.92 786.781" stroke="#ECAEB9" stroke-width="3.61905"/>
<path d="M117.77 498.511C162.067 486.998 274.219 468.296 392.601 593.578C530.317 749.124 616.286 531.764 768.615 514.353C991.104 434.385 1040.81 551.205 1171.41 564.262C1312.12 524.271 1347.85 789.853 1583.47 606.09C1786.95 442.278 1937.86 670.201 1987.88 804.638" stroke="#EEB5BF" stroke-width="3.38095"/>
<path d="M121.784 512.658C163.755 507.294 269.707 495.503 384.088 609.062C515.869 749.859 603.9 550.806 754.391 523.193C981.418 427.337 1041.86 557.401 1163.91 584.602C1296.98 553.932 1344.84 803.435 1571.21 622.011C1768.66 458.544 1926.57 687.522 1980.84 822.445" stroke="#F0BDC6" stroke-width="3.14286"/>
<path d="M125.811 526.743C165.457 527.526 265.207 522.645 375.587 624.482C501.433 750.53 591.527 569.784 740.179 531.97C971.745 420.226 1042.92 563.535 1156.41 604.879C1281.85 583.529 1341.85 816.954 1558.97 637.869C1750.38 474.745 1915.29 704.781 1973.82 840.189" stroke="#F1C4CC" stroke-width="2.90476"/>
<path d="M129.854 540.745C167.173 547.676 260.723 549.706 367.102 639.82C487.013 751.12 579.17 588.681 725.982 540.665C962.087 413.033 1044 569.586 1148.94 625.074C1266.74 613.044 1338.87 830.391 1546.74 653.645C1732.12 490.865 1904.03 721.957 1966.81 857.851" stroke="#F3CBD2" stroke-width="2.66667"/>
<path d="M133.918 554.64C168.912 567.718 256.261 576.659 358.638 655.051C472.615 751.602 566.834 607.47 711.808 549.253C952.452 405.732 1045.1 575.53 1141.48 645.161C1251.64 642.452 1335.92 843.72 1534.53 669.313C1713.87 506.878 1892.78 739.026 1959.82 875.405" stroke="#F5D3D9" stroke-width="2.42857"/>
<path d="M138.01 568.388C170.677 587.614 251.826 603.466 350.201 670.135C458.244 751.937 554.525 626.112 697.66 557.693C942.843 398.284 1046.23 581.327 1134.05 665.101C1236.58 671.713 1332.99 856.902 1522.36 684.835C1695.66 522.743 1881.57 755.948 1952.86 892.812" stroke="#F6DADF" stroke-width="2.19048"/>
<path d="M142.141 581.927C172.483 607.301 247.431 630.063 341.805 685.01C443.913 752.063 542.257 644.545 683.552 565.925C933.274 390.628 1047.39 586.915 1126.66 684.832C1221.55 700.765 1330.1 869.875 1510.22 700.147C1677.48 538.4 1870.39 772.661 1945.94 910.01" stroke="#F8E1E5" stroke-width="1.95238"/>
<path d="M146.334 595.148C174.351 626.67 243.097 656.343 333.47 699.568C429.644 751.872 530.05 662.661 669.506 573.839C923.767 382.654 1048.62 592.186 1119.34 704.246C1206.59 729.5 1327.27 882.531 1498.14 715.142C1659.37 553.739 1859.28 789.057 1939.08 926.891" stroke="#FAE9EC" stroke-width="1.71429"/>
<path d="M150.627 607.845C176.318 645.515 238.864 682.098 325.235 713.6C415.474 751.155 517.943 680.251 655.56 581.229C914.36 374.155 1049.95 596.932 1112.11 723.136C1191.73 757.71 1324.54 894.662 1486.16 729.613C1641.36 568.553 1848.27 804.928 1932.32 943.247" stroke="#FCF0F2" stroke-width="1.47619"/>
<path d="M155.114 619.53C178.479 663.347 234.824 706.842 317.195 726.621C401.498 749.428 506.03 696.831 641.808 587.607C905.147 364.644 1051.48 600.666 1105.08 741.013C1177.06 784.908 1322.01 905.782 1474.38 743.071C1623.54 582.356 1837.45 819.787 1925.76 958.592" stroke="#FDF8F9" stroke-width="1.2381"/>
</svg>
