<svg width="496" height="632" viewBox="0 0 496 632" fill="none" xmlns="http://www.w3.org/2000/svg">
<path d="M280 224C280 227.232 281.944 230.152 284.936 231.392C285.928 231.8 286.968 232 288 232C290.08 232 292.128 231.184 293.656 229.656C312.784 210.528 338.208 200 365.256 200H376V184H365.256C340.168 184 316.296 191.824 296.4 206.32C298.792 175.84 311.808 147.512 333.656 125.656L322.344 114.344C295.04 141.656 280 177.96 280 216.568V224Z" fill="#112A17"/>
<path d="M296 480V319.4C298.648 319.728 301.312 320 304 320C325.896 320 346.248 308.608 357.904 290.392C366.112 294.08 374.992 296 384 296C419.288 296 448 267.288 448 232C448 217.264 443.056 203.32 433.944 192C443.056 180.68 448 166.736 448 152C448 119.224 423.232 92.128 391.44 88.432C391.816 85.64 392 82.824 392 80C392 44.712 363.288 16 328 16C317.136 16 306.688 18.696 297.312 23.872C288.856 9.28 273.28 0 256 0C239.488 0 224.272 8.664 215.592 22.336C208.408 18.208 200.288 16 192 16C177.2 16 163.256 23.008 154.232 34.648C148.336 32.888 142.224 32 136 32C100.712 32 72 60.712 72 96C72 107.352 75.048 118.496 80.72 128.232C60.816 139.424 48 160.744 48 184C48 206.816 60.456 227.888 80 239.248V280C80 284.424 83.576 288 88 288H96V304H80V320H96V400H80V416H96V448H112V416H144V448H160V416H176V400H160V320H176V304H160V288H181.328C193.024 296.64 200 310.208 200 324.84V480H0V496H496V480H296ZM96 272V256H128V272H96ZM207.192 224H240V240H208V232C208 229.264 207.72 226.584 207.192 224ZM240 208H199.792C192.48 198.344 181.008 192 168 192C154.872 192 143.296 198.448 136 208.248V208H96V176H240V208ZM128.808 224C128.28 226.584 128 229.264 128 232V240H96V224H128.808ZM144 232C144 218.768 154.768 208 168 208C181.232 208 192 218.768 192 232V272H144V232ZM208 256H240V272H208V256ZM107.312 160L168 99.312L228.688 160H107.312ZM144 368H112V352H144V368ZM112 400V384H144V400H112ZM144 336H112V320H144V336ZM144 304H112V288H144V304ZM203.768 288H248C252.424 288 256 284.424 256 280V168C256 165.784 255.104 163.784 253.648 162.336L173.656 82.344C170.528 79.216 165.472 79.216 162.344 82.344L82.352 162.336C80.896 163.784 80 165.784 80 168V219.736C70.016 210.752 64 197.768 64 184C64 164 76.64 145.92 95.456 139C97.888 138.104 99.728 136.096 100.408 133.592C101.088 131.096 100.52 128.424 98.88 126.424C91.856 117.864 88 107.064 88 96C88 69.528 109.528 48 136 48C142.336 48 148.504 49.224 154.344 51.648C158.048 53.176 162.352 51.736 164.352 48.232C170.08 38.216 180.672 32 192 32C199.736 32 207.272 34.936 213.224 40.256C215.208 42.032 217.936 42.704 220.496 42.056C223.072 41.408 225.16 39.536 226.072 37.048C230.688 24.456 242.712 16 256 16C269.776 16 281.936 24.904 286.264 38.16C287.072 40.632 289.024 42.56 291.504 43.328C293.984 44.088 296.688 43.6 298.744 42.016C307.24 35.464 317.352 32 328 32C354.472 32 376 53.528 376 80C376 84.664 375.312 89.312 373.96 93.816C373.208 96.304 373.712 98.992 375.304 101.04C376.888 103.088 379.424 104.264 381.968 104.12L384 104C410.472 104 432 125.528 432 152C432 164.992 426.872 177.168 417.56 186.288C416.024 187.792 415.152 189.848 415.152 192C415.152 194.152 416.016 196.208 417.56 197.712C426.872 206.832 432 219.008 432 232C432 258.472 410.472 280 384 280C375.168 280 366.496 277.52 358.896 272.84C356.96 271.656 354.592 271.328 352.408 271.992C350.224 272.648 348.416 274.2 347.448 276.264C339.576 293.12 322.52 304 304 304C301.344 304 298.72 303.744 296.128 303.312C296.784 284.552 304.312 267 317.656 253.656C331.624 239.688 350.184 232 369.936 232H376V216H369.936C345.912 216 323.328 225.352 306.344 242.344C289.36 259.328 280 281.912 280 305.936V480H248V408H232V480H216V324.84C216 311.344 211.568 298.512 203.768 288Z" fill="#112A17"/>
<path d="M272 144C272.152 144 272.296 144 272.448 143.992C274.712 143.864 276.832 142.776 278.256 141L310.256 101L297.76 91.0078L271.344 124.024L245.664 98.3438L234.352 109.656L266.352 141.656C267.84 143.16 269.88 144 272 144Z" fill="#112A17"/>
<path d="M248 320H264V392H248V320Z" fill="#112A17"/>
<path d="M56.826 612.078C46.074 612.078 36.876 610.608 29.232 607.668C21.588 604.644 15.75 600.276 11.718 594.564C7.686 588.852 5.67 581.922 5.67 573.774C5.67 565.626 7.686 558.696 11.718 552.984C15.75 547.272 21.588 542.904 29.232 539.88C36.876 536.856 46.074 535.344 56.826 535.344C56.994 535.344 57.288 535.344 57.708 535.344C58.212 535.344 58.674 535.344 59.094 535.344C59.598 535.344 59.892 535.344 59.976 535.344C70.728 535.344 79.884 536.856 87.444 539.88C95.088 542.904 100.926 547.272 104.958 552.984C108.99 558.696 111.006 565.626 111.006 573.774C111.006 581.838 108.99 588.768 104.958 594.564C101.01 600.276 95.256 604.644 87.696 607.668C80.22 610.608 71.148 612.078 60.48 612.078C60.312 612.078 59.934 612.078 59.346 612.078C58.842 612.078 58.338 612.078 57.834 612.078C57.33 612.078 56.994 612.078 56.826 612.078ZM58.212 602.25C58.38 602.25 58.59 602.25 58.842 602.25C59.094 602.25 59.22 602.25 59.22 602.25C67.788 602.166 75.012 601.074 80.892 598.974C86.772 596.79 91.224 593.598 94.248 589.398C97.356 585.114 98.91 579.864 98.91 573.648C98.91 567.516 97.356 562.35 94.248 558.15C91.14 553.95 86.646 550.758 80.766 548.574C74.97 546.39 67.872 545.298 59.472 545.298C59.388 545.298 59.178 545.298 58.842 545.298C58.59 545.298 58.38 545.298 58.212 545.298C49.56 545.298 42.21 546.39 36.162 548.574C30.198 550.674 25.662 553.824 22.554 558.024C19.446 562.224 17.892 567.474 17.892 573.774C17.892 580.074 19.488 585.324 22.68 589.524C25.872 593.724 30.45 596.916 36.414 599.1C42.462 601.2 49.728 602.25 58.212 602.25ZM52.542 621.276V526.524H64.26V621.276H52.542ZM116.93 618L156.872 529.8H169.346L209.414 618H196.184L160.526 536.856H165.566L129.908 618H116.93ZM133.94 595.95L137.342 585.87H186.986L190.64 595.95H133.94ZM262.844 619.008C256.124 619.008 249.908 617.916 244.196 615.732C238.568 613.464 233.654 610.314 229.454 606.282C225.338 602.166 222.104 597.378 219.752 591.918C217.4 586.458 216.224 580.452 216.224 573.9C216.224 567.348 217.4 561.342 219.752 555.882C222.104 550.422 225.38 545.676 229.58 541.644C233.78 537.528 238.694 534.378 244.322 532.194C250.034 529.926 256.25 528.792 262.97 528.792C269.774 528.792 276.032 529.968 281.744 532.32C287.54 534.588 292.454 537.99 296.486 542.526L288.296 550.464C284.936 546.936 281.156 544.332 276.956 542.652C272.756 540.888 268.262 540.006 263.474 540.006C258.518 540.006 253.898 540.846 249.614 542.526C245.414 544.206 241.76 546.558 238.652 549.582C235.544 552.606 233.108 556.218 231.344 560.418C229.664 564.534 228.824 569.028 228.824 573.9C228.824 578.772 229.664 583.308 231.344 587.508C233.108 591.624 235.544 595.194 238.652 598.218C241.76 601.242 245.414 603.594 249.614 605.274C253.898 606.954 258.518 607.794 263.474 607.794C268.262 607.794 272.756 606.954 276.956 605.274C281.156 603.51 284.936 600.822 288.296 597.21L296.486 605.148C292.454 609.684 287.54 613.128 281.744 615.48C276.032 617.832 269.732 619.008 262.844 619.008ZM373.191 618L341.187 574.53L351.393 568.23L387.555 618H373.191ZM313.845 618V529.8H326.193V618H313.845ZM322.413 579.192V568.104H351.015V579.192H322.413ZM352.527 575.286L340.935 573.522L372.561 529.8H386.043L352.527 575.286ZM439.914 619.008C433.194 619.008 426.936 617.874 421.14 615.606C415.428 613.338 410.472 610.188 406.272 606.156C402.072 602.04 398.796 597.252 396.444 591.792C394.092 586.332 392.916 580.368 392.916 573.9C392.916 567.432 394.092 561.468 396.444 556.008C398.796 550.548 402.072 545.802 406.272 541.77C410.472 537.654 415.428 534.462 421.14 532.194C426.852 529.926 433.11 528.792 439.914 528.792C446.634 528.792 452.808 529.926 458.436 532.194C464.148 534.378 469.104 537.528 473.304 541.644C477.588 545.676 480.864 550.422 483.132 555.882C485.484 561.342 486.66 567.348 486.66 573.9C486.66 580.452 485.484 586.458 483.132 591.918C480.864 597.378 477.588 602.166 473.304 606.282C469.104 610.314 464.148 613.464 458.436 615.732C452.808 617.916 446.634 619.008 439.914 619.008ZM439.914 607.794C444.786 607.794 449.28 606.954 453.396 605.274C457.596 603.594 461.208 601.242 464.232 598.218C467.34 595.11 469.734 591.498 471.414 587.382C473.178 583.266 474.06 578.772 474.06 573.9C474.06 569.028 473.178 564.534 471.414 560.418C469.734 556.302 467.34 552.732 464.232 549.708C461.208 546.6 457.596 544.206 453.396 542.526C449.28 540.846 444.786 540.006 439.914 540.006C434.958 540.006 430.38 540.846 426.18 542.526C422.064 544.206 418.452 546.6 415.344 549.708C412.236 552.732 409.8 556.302 408.036 560.418C406.356 564.534 405.516 569.028 405.516 573.9C405.516 578.772 406.356 583.266 408.036 587.382C409.8 591.498 412.236 595.11 415.344 598.218C418.452 601.242 422.064 603.594 426.18 605.274C430.38 606.954 434.958 607.794 439.914 607.794Z" fill="#112A17"/>
</svg>
