<svg width="536" height="656" viewBox="0 0 536 656" fill="none" xmlns="http://www.w3.org/2000/svg">
<path d="M511.327 213.489C508.454 204.636 510.559 190.845 503.082 180.569C495.534 170.197 481.76 167.998 474.319 162.584C467.015 157.267 460.613 144.755 448.32 140.763C440.659 138.275 432.756 139.965 425.782 141.456C424.593 141.71 423.428 141.959 422.289 142.185C421.015 132.875 416.191 124.636 411.864 117.245C408.952 112.271 406.202 107.573 404.741 103.071C403.179 98.2639 402.597 92.6559 401.981 86.7178C400.918 76.4649 399.817 65.8619 393.465 57.1339C387.051 48.3209 377.268 44.0009 367.806 39.8229C362.385 37.4299 357.265 35.1689 353.251 32.2479C342.467 24.3979 333.621 7.00785 317.159 1.66285C301.066 -3.56115 284.115 5.20185 269.984 5.20185C255.828 5.20185 238.91 -3.56415 222.809 1.66285C206.317 7.01785 197.535 24.3729 186.717 32.2469C182.703 35.1679 177.583 37.4289 172.162 39.8219C162.7 43.9999 152.916 48.3189 146.502 57.1319C140.149 65.8618 139.049 76.4659 137.985 86.7209C137.71 89.3739 137.45 91.8799 137.101 94.3459C136.522 98.4469 139.377 102.242 143.479 102.821C147.587 103.401 151.375 100.545 151.955 96.4429C153.577 84.9509 153.416 73.1239 158.631 65.9599C162.668 60.4119 170.223 57.0769 178.22 53.5459C184.125 50.9389 190.231 48.2429 195.543 44.3769C207.904 35.3819 215.968 19.6569 227.441 15.9319C233.698 13.8999 241.659 15.6029 250.087 17.4049C256.525 18.7809 263.182 20.2049 269.983 20.2049C276.783 20.2049 283.44 18.7819 289.878 17.4059C298.308 15.6039 306.269 13.9029 312.525 15.9329C323.995 19.6579 332.067 35.3859 344.424 44.3789C349.736 48.2449 355.842 50.9409 361.746 53.5479C369.743 57.0788 377.298 60.4149 381.335 65.9629C385.313 71.4279 386.161 79.6088 387.06 88.2699C387.73 94.7219 388.422 101.393 390.472 107.707C395.272 122.491 408.203 135.066 407.587 147.769C407.449 150.61 408.543 153.364 410.587 155.326C412.602 157.26 415.343 158.223 418.125 157.975C421.849 157.64 425.442 156.872 428.917 156.129C434.541 154.927 439.854 153.791 443.686 155.034C447.786 156.365 451.474 160.508 455.379 164.893C458.445 168.336 461.616 171.896 465.491 174.716C469.419 177.575 473.822 179.519 478.082 181.4C483.422 183.758 488.467 185.985 490.952 189.4C493.395 192.758 493.962 198.22 494.562 204.002C495.044 208.653 495.543 213.463 497.058 218.127C498.513 222.607 500.891 226.67 503.192 230.6C506.177 235.701 508.998 240.518 508.998 244.967C508.998 249.416 506.178 254.234 503.191 259.335C500.891 263.264 498.512 267.327 497.057 271.807C495.543 276.471 495.044 281.28 494.562 285.931C493.961 291.714 493.395 297.176 490.951 300.535C488.466 303.95 483.422 306.178 478.081 308.535C473.821 310.415 469.418 312.36 465.49 315.219C461.615 318.038 458.445 321.599 455.379 325.042C451.474 329.427 447.785 333.569 443.685 334.9C439.854 336.146 434.541 335.008 428.917 333.805C424.277 332.813 419.479 331.787 414.463 331.787C409.447 331.787 404.65 332.812 400.01 333.805C394.384 335.007 389.071 336.143 385.241 334.9C381.141 333.569 377.452 329.426 373.547 325.041C370.481 321.598 367.311 318.038 363.436 315.218C360.609 313.161 357.536 311.577 354.447 310.15L444.333 220.263C447.547 217.051 447.812 211.968 444.949 208.439C442.087 204.912 437.058 204.122 433.254 206.603L337.371 269.105L337.709 267.845C339.398 261.544 341.313 255.225 343.401 249.065C344.731 245.142 342.63 240.884 338.707 239.554C334.783 238.227 330.525 240.325 329.196 244.249C327.004 250.716 324.993 257.348 323.22 263.962L320.686 273.419C319.415 278.163 321.165 283.091 325.14 285.974C329.117 288.857 334.343 288.986 338.455 286.305L391.951 251.432C390.182 253.201 337.36 306.023 331.846 311.537C312.745 330.638 298.954 354.525 291.963 380.617L291.549 382.162C289.686 389.115 293.019 396.474 299.473 399.66L302.809 401.306L298.689 416.684L294.977 416.442C287.787 415.98 281.227 420.679 279.365 427.633C274.559 445.565 279.73 464.86 292.857 477.987L307.913 493.043H171.721L199.766 464.999C212.785 451.98 222.185 435.698 226.951 417.914L237.758 377.583C240.458 367.505 237.553 356.661 230.175 349.283C223.896 343.004 207.785 326.894 199.664 318.773C200.35 319.147 227.573 333.975 229.381 334.96C238.174 339.753 249.151 335.062 251.748 325.369L259.037 298.168C266.679 269.647 258.511 238.855 237.52 217.864L219.16 199.504L261.408 226.334C265.003 228.617 269.641 228.134 272.69 225.211C275.752 222.275 276.41 217.66 274.289 213.986L253.766 178.438L293.044 214.153C301.532 221.87 314.739 221.773 323.112 213.925L359.121 180.176L354.904 187.479C350.544 195.032 346.443 202.867 342.716 210.767C340.948 214.514 342.553 218.983 346.3 220.75C350.068 222.529 354.527 220.889 356.282 217.167C359.832 209.64 363.739 202.176 367.893 194.98L384.13 166.855C386.988 161.904 385.813 155.73 381.334 152.177C376.854 148.622 370.574 148.882 366.402 152.792L312.852 202.982C310.146 205.52 305.875 205.55 303.132 203.056L254.959 159.252C264.203 152.147 265.731 143.159 266.916 131.746C267.337 127.691 267.734 123.862 268.759 120.706C270.039 116.767 267.882 112.536 263.943 111.256C260.008 109.977 255.774 112.133 254.494 116.072C252.978 120.736 252.479 125.546 251.997 130.197C251.396 135.98 250.83 141.442 248.386 144.8C244.004 150.822 231.716 153.086 222.925 159.484C214.083 165.919 208.373 176.811 201.12 179.166C197.291 180.409 191.977 179.274 186.351 178.071C181.711 177.079 176.914 176.053 171.898 176.053C166.383 176.053 161.123 177.29 155.739 178.433C151.686 179.285 149.09 183.261 149.941 187.314C150.792 191.367 154.761 193.964 158.823 193.112L160.583 192.738C164.639 191.871 168.469 191.052 171.898 191.052C175.329 191.052 179.16 191.871 183.215 192.738C186.293 193.396 189.552 194.092 192.892 194.452L226.912 228.471C239.895 241.454 246.923 259.052 246.854 277.001C245.379 277.306 243.937 277.591 242.507 277.841C228.989 280.199 218.511 290.737 216.433 304.064C216.058 306.466 215.595 308.424 215.004 310.049L169.364 285.188C165.467 283.065 160.713 284.104 158.053 287.656C155.395 291.209 155.742 296.066 158.88 299.205L187.734 328.059C186.98 328.533 186.238 329.032 185.515 329.558C181.375 332.571 177.966 336.399 174.669 340.101C170.386 344.911 166.34 349.455 161.744 350.947C157.442 352.345 151.613 351.098 145.441 349.778C140.451 348.711 135.292 347.608 129.927 347.608C124.562 347.608 119.404 348.711 114.413 349.778C108.242 351.098 102.412 352.343 98.109 350.946C93.514 349.454 89.467 344.911 85.184 340.101C81.887 336.399 78.478 332.57 74.338 329.558C70.14 326.503 65.404 324.412 60.825 322.39C54.967 319.804 49.433 317.36 46.645 313.53C43.902 309.761 43.281 303.77 42.623 297.426C42.104 292.425 41.567 287.252 39.949 282.267C38.395 277.482 35.838 273.115 33.365 268.89C30.094 263.288 27 258.004 27 253.022C27 248.04 30.094 242.755 33.368 237.161C35.841 232.936 38.398 228.568 39.951 223.785C41.571 218.799 42.107 213.626 42.627 208.624C43.285 202.281 43.907 196.29 46.649 192.522C49.437 188.69 54.97 186.247 60.829 183.661C65.408 181.64 70.143 179.549 74.341 176.494C78.482 173.481 81.891 169.653 85.188 165.951C89.471 161.141 93.518 156.598 98.113 155.106C103.629 153.315 111.657 155.865 119.804 157.374C126.298 158.581 132.362 153.587 132.358 146.858C132.358 142.449 133.868 137.77 137.408 131.21C139.375 127.564 138.014 123.015 134.369 121.048C130.723 119.081 126.174 120.442 124.207 124.087C121.656 128.816 118.803 134.837 117.764 141.651C117.694 141.636 117.623 141.621 117.552 141.606C110.081 140.008 101.614 138.198 93.481 140.839C80.351 145.102 73.534 158.532 65.516 164.366C57.428 170.252 42.555 172.658 34.522 183.696C29.405 190.728 28.503 199.413 27.709 207.076C27.25 211.497 26.816 215.674 25.687 219.152C22.685 228.393 12 239.039 12 253.022C12 262.071 16.475 269.716 20.423 276.461C22.588 280.159 24.633 283.652 25.685 286.893C28.824 296.556 26.549 311.396 34.52 322.349C39.684 329.445 47.699 332.983 54.77 336.105C58.804 337.886 62.615 339.569 65.514 341.679C73.508 347.498 80.365 360.949 93.479 365.206C106.206 369.341 119.56 362.601 129.929 362.601C133.707 362.601 137.884 363.494 142.306 364.439C147.033 365.45 152.158 366.546 157.346 366.546C160.358 366.546 163.391 366.176 166.378 365.206C179.508 360.942 186.322 347.516 194.342 341.679C195.644 340.731 197.163 339.857 198.734 339.051L219.566 359.883C223.168 363.484 224.586 368.776 223.268 373.694L212.461 414.024C208.375 429.269 200.317 443.226 189.157 454.386L150.614 492.929C148.075 495.47 147.322 499.256 148.697 502.574C150.073 505.892 153.282 508.036 156.874 508.036H322.761C326.355 508.036 329.565 505.89 330.939 502.57C332.313 499.25 331.558 495.464 329.019 492.927L303.466 467.373C294.115 458.022 290.433 444.28 293.855 431.508C293.873 431.441 293.95 431.403 294.002 431.403L299.779 431.78C305.716 432.164 311.109 428.286 312.643 422.557L317.834 403.184C319.371 397.453 316.624 391.388 311.304 388.763L306.113 386.2C306.052 386.17 306.021 386.101 306.039 386.036L306.453 384.491C312.764 360.939 325.213 339.377 342.455 322.135L343.092 321.498C343.66 321.752 344.226 322.001 344.787 322.249C348.486 323.883 351.98 325.425 354.61 327.339C361.914 332.656 368.316 345.168 380.609 349.16C392.579 353.047 404.93 346.781 414.463 346.781C423.953 346.781 436.375 353.04 448.317 349.16C460.627 345.164 466.98 332.68 474.316 327.34C481.727 321.947 495.542 319.71 503.08 309.354C510.563 299.071 508.447 285.295 511.324 276.433C514.07 267.992 524 258.063 524 244.962C524 231.839 514.083 221.97 511.327 213.489ZM232.286 171.228L249.456 200.969L220.83 182.79C225.04 178.296 228.449 173.839 232.286 171.228ZM231.253 306.367C232.335 299.43 237.839 293.925 244.967 292.632C244.683 293.808 245.22 291.771 237.259 321.48C237.24 321.548 237.197 321.709 236.981 321.801C236.764 321.893 236.617 321.816 236.556 321.781L228.259 317.261C229.966 313.435 230.753 309.575 231.253 306.367Z" fill="black"/>
<path d="M267.732 404.212C271.743 405.287 275.849 402.9 276.918 398.908L282.5 378.075C289.663 351.343 303.604 326.677 322.818 306.743C325.692 303.761 325.605 299.013 322.623 296.139C319.642 293.264 314.894 293.352 312.018 296.334C291.047 318.091 275.83 345.015 268.012 374.193L262.43 395.026C261.357 399.027 263.731 403.14 267.732 404.212Z" fill="black"/>
<path d="M273.806 309.882C277.814 310.953 281.921 308.576 282.992 304.578C288.555 283.815 287.789 262.034 280.775 241.587C279.431 237.669 275.163 235.585 271.248 236.926C267.33 238.27 265.243 242.536 266.588 246.454C272.63 264.068 273.292 282.825 268.504 300.696C267.431 304.697 269.805 308.81 273.806 309.882Z" fill="black"/>
<path d="M236.417 420.444C231.385 439.222 221.582 456.54 208.067 470.525C205.189 473.504 205.27 478.252 208.249 481.13C211.227 484.008 215.975 483.928 218.854 480.949C234.133 465.138 245.216 445.558 250.905 424.326C251.977 420.325 249.603 416.213 245.602 415.14C241.601 414.069 237.488 416.443 236.417 420.444Z" fill="black"/>
<path d="M57.728 637.984C46.8053 637.984 37.4613 636.491 29.696 633.504C21.9307 630.432 16 625.995 11.904 620.192C7.808 614.389 5.76 607.349 5.76 599.072C5.76 590.795 7.808 583.755 11.904 577.952C16 572.149 21.9307 567.712 29.696 564.64C37.4613 561.568 46.8053 560.032 57.728 560.032C57.8987 560.032 58.1973 560.032 58.624 560.032C59.136 560.032 59.6053 560.032 60.032 560.032C60.544 560.032 60.8427 560.032 60.928 560.032C71.8507 560.032 81.152 561.568 88.832 564.64C96.5973 567.712 102.528 572.149 106.624 577.952C110.72 583.755 112.768 590.795 112.768 599.072C112.768 607.264 110.72 614.304 106.624 620.192C102.613 625.995 96.768 630.432 89.088 633.504C81.4933 636.491 72.2773 637.984 61.44 637.984C61.2693 637.984 60.8853 637.984 60.288 637.984C59.776 637.984 59.264 637.984 58.752 637.984C58.24 637.984 57.8987 637.984 57.728 637.984ZM59.136 628C59.3067 628 59.52 628 59.776 628C60.032 628 60.16 628 60.16 628C68.864 627.915 76.2027 626.805 82.176 624.672C88.1493 622.453 92.672 619.211 95.744 614.944C98.9013 610.592 100.48 605.259 100.48 598.944C100.48 592.715 98.9013 587.467 95.744 583.2C92.5867 578.933 88.0213 575.691 82.048 573.472C76.16 571.253 68.9493 570.144 60.416 570.144C60.3307 570.144 60.1173 570.144 59.776 570.144C59.52 570.144 59.3067 570.144 59.136 570.144C50.3467 570.144 42.88 571.253 36.736 573.472C30.6773 575.605 26.0693 578.805 22.912 583.072C19.7547 587.339 18.176 592.672 18.176 599.072C18.176 605.472 19.7973 610.805 23.04 615.072C26.2827 619.339 30.9333 622.581 36.992 624.8C43.136 626.933 50.5173 628 59.136 628ZM53.376 647.328V551.072H65.28V647.328H53.376ZM118.786 644L159.362 554.4H172.034L212.738 644H199.298L163.074 561.568H168.194L131.97 644H118.786ZM136.066 621.6L139.522 611.36H189.954L193.666 621.6H136.066ZM267.016 645.024C260.189 645.024 253.875 643.915 248.072 641.696C242.355 639.392 237.363 636.192 233.096 632.096C228.915 627.915 225.629 623.051 223.24 617.504C220.851 611.957 219.656 605.856 219.656 599.2C219.656 592.544 220.851 586.443 223.24 580.896C225.629 575.349 228.957 570.528 233.224 566.432C237.491 562.251 242.483 559.051 248.2 556.832C254.003 554.528 260.317 553.376 267.144 553.376C274.056 553.376 280.413 554.571 286.216 556.96C292.104 559.264 297.096 562.72 301.192 567.328L292.872 575.392C289.459 571.808 285.619 569.163 281.352 567.456C277.085 565.664 272.52 564.768 267.656 564.768C262.621 564.768 257.928 565.621 253.576 567.328C249.309 569.035 245.597 571.424 242.44 574.496C239.283 577.568 236.808 581.237 235.016 585.504C233.309 589.685 232.456 594.251 232.456 599.2C232.456 604.149 233.309 608.757 235.016 613.024C236.808 617.205 239.283 620.832 242.44 623.904C245.597 626.976 249.309 629.365 253.576 631.072C257.928 632.779 262.621 633.632 267.656 633.632C272.52 633.632 277.085 632.779 281.352 631.072C285.619 629.28 289.459 626.549 292.872 622.88L301.192 630.944C297.096 635.552 292.104 639.051 286.216 641.44C280.413 643.829 274.013 645.024 267.016 645.024ZM379.115 644L346.603 599.84L356.971 593.44L393.707 644H379.115ZM318.827 644V554.4H331.371V644H318.827ZM327.531 604.576V593.312H356.587V604.576H327.531ZM358.123 600.608L346.347 598.816L378.475 554.4H392.171L358.123 600.608ZM446.897 645.024C440.07 645.024 433.713 643.872 427.825 641.568C422.022 639.264 416.988 636.064 412.721 631.968C408.454 627.787 405.126 622.923 402.737 617.376C400.348 611.829 399.153 605.771 399.153 599.2C399.153 592.629 400.348 586.571 402.737 581.024C405.126 575.477 408.454 570.656 412.721 566.56C416.988 562.379 422.022 559.136 427.825 556.832C433.628 554.528 439.985 553.376 446.897 553.376C453.724 553.376 459.996 554.528 465.713 556.832C471.516 559.051 476.55 562.251 480.817 566.432C485.169 570.528 488.497 575.349 490.801 580.896C493.19 586.443 494.385 592.544 494.385 599.2C494.385 605.856 493.19 611.957 490.801 617.504C488.497 623.051 485.169 627.915 480.817 632.096C476.55 636.192 471.516 639.392 465.713 641.696C459.996 643.915 453.724 645.024 446.897 645.024ZM446.897 633.632C451.846 633.632 456.412 632.779 460.593 631.072C464.86 629.365 468.529 626.976 471.601 623.904C474.758 620.747 477.19 617.077 478.897 612.896C480.689 608.715 481.585 604.149 481.585 599.2C481.585 594.251 480.689 589.685 478.897 585.504C477.19 581.323 474.758 577.696 471.601 574.624C468.529 571.467 464.86 569.035 460.593 567.328C456.412 565.621 451.846 564.768 446.897 564.768C441.862 564.768 437.212 565.621 432.945 567.328C428.764 569.035 425.094 571.467 421.937 574.624C418.78 577.696 416.305 581.323 414.513 585.504C412.806 589.685 411.953 594.251 411.953 599.2C411.953 604.149 412.806 608.715 414.513 612.896C416.305 617.077 418.78 620.747 421.937 623.904C425.094 626.976 428.764 629.365 432.945 631.072C437.212 632.779 441.862 633.632 446.897 633.632Z" fill="black"/>
</svg>
