<svg width="536" height="639" viewBox="0 0 536 639" fill="none" xmlns="http://www.w3.org/2000/svg">
<path d="M490.34 170.56C490.34 147.7 477.075 127.252 456.722 117.773C457.166 114.861 457.39 111.924 457.39 108.99C457.39 101.75 456.073 94.673 453.475 87.955C451.98 84.091 447.639 82.17 443.775 83.664C439.912 85.158 437.991 89.501 439.485 93.364C441.413 98.35 442.39 103.607 442.39 108.989C442.39 112.828 441.872 116.678 440.853 120.432C439.809 124.273 441.948 128.26 445.724 129.515C463.438 135.405 475.34 151.9 475.34 170.558C475.34 182.629 470.479 193.832 461.652 202.106C458.735 204.84 458.475 209.382 461.062 212.43C467.665 220.212 471.3 230.123 471.3 240.338C471.3 264.186 451.903 283.588 428.06 283.588C426.651 283.588 425.235 283.517 423.729 283.372C419.736 282.989 416.165 285.798 415.588 289.757C412.522 310.817 394.136 326.697 372.82 326.697C364.578 326.697 356.608 324.358 349.746 320.019L381.437 286.789C404.752 285.542 423.338 266.183 423.338 242.563C423.338 238.421 419.981 235.063 415.838 235.063C411.695 235.063 408.338 238.421 408.338 242.563C408.338 258.715 395.197 271.856 379.045 271.856C362.894 271.856 349.753 258.715 349.753 242.563C349.753 238.421 346.396 235.063 342.253 235.063C338.11 235.063 334.753 238.421 334.753 242.563C334.753 249.198 336.229 255.491 338.855 261.146L298.671 294.378C296.046 296.55 292.581 297.106 289.407 295.866C286.232 294.626 284.063 291.872 283.604 288.499L279.664 259.517C280.753 259.597 281.847 259.647 282.95 259.647C307.371 259.647 327.239 239.779 327.239 215.358C327.239 211.216 323.882 207.858 319.739 207.858C315.596 207.858 312.239 211.216 312.239 215.358C312.239 231.508 299.1 244.647 282.95 244.647C273.978 244.647 265.626 240.622 260.036 233.603C258.613 231.817 256.455 230.776 254.172 230.776C254.171 230.776 254.171 230.776 254.17 230.776C251.888 230.776 249.73 231.815 248.307 233.599C242.707 240.62 234.354 244.647 225.39 244.647C209.24 244.647 196.101 231.508 196.101 215.358C196.101 211.216 192.743 207.858 188.601 207.858C184.459 207.858 181.101 211.216 181.101 215.358C181.101 239.779 200.969 259.647 225.39 259.647C226.492 259.647 227.587 259.597 228.675 259.517L224.735 288.498C224.276 291.873 222.106 294.628 218.93 295.867C215.759 297.104 212.302 296.549 209.679 294.377L169.492 261.134C172.114 255.481 173.588 249.192 173.588 242.562C173.588 238.42 170.23 235.062 166.088 235.062C161.946 235.062 158.588 238.42 158.588 242.562C158.588 258.714 145.447 271.855 129.295 271.855C113.143 271.855 100.002 258.714 100.002 242.562C100.002 238.42 96.644 235.062 92.502 235.062C88.36 235.062 85.002 238.42 85.002 242.562C85.002 266.182 103.587 285.541 126.902 286.788L158.602 320.026C151.712 324.398 143.822 326.697 135.519 326.697C114.212 326.697 95.826 310.815 92.75 289.754C92.172 285.796 88.592 282.99 84.609 283.372C83.125 283.515 81.671 283.588 80.288 283.588C56.44 283.588 37.038 264.186 37.038 240.338C37.038 230.124 40.674 220.213 47.277 212.43C49.864 209.381 49.604 204.84 46.687 202.106C37.859 193.833 32.998 182.629 32.998 170.558C32.998 151.902 44.9 135.408 62.616 129.514C66.392 128.258 68.529 124.271 67.486 120.431C66.465 116.675 65.948 112.825 65.948 108.988C65.948 85.14 85.345 65.738 109.188 65.738C113.297 65.738 117.398 66.329 121.379 67.496C125.046 68.569 128.936 66.715 130.409 63.187C137.152 47.037 152.817 36.6 170.32 36.6C181.611 36.6 192.3 40.934 200.42 48.805C202.296 50.623 204.982 51.335 207.514 50.682C210.044 50.029 212.052 48.107 212.814 45.608C218.397 27.3 235.017 15 254.17 15C273.321 15 289.945 27.302 295.537 45.611C296.301 48.111 298.31 50.033 300.842 50.684C303.372 51.334 306.06 50.622 307.936 48.8C316.035 40.933 326.718 36.601 338.02 36.601C355.523 36.601 371.188 47.038 377.928 63.189C379.401 66.716 383.286 68.573 386.958 67.498C397.957 64.276 410.01 65.607 419.928 71.039C423.563 73.029 428.12 71.697 430.109 68.064C432.098 64.431 430.766 59.873 427.133 57.883C415.623 51.58 401.967 49.334 388.985 51.639C378.811 33.201 359.437 21.6 338.02 21.6C326.418 21.6 315.3 24.989 305.837 31.292C295.961 12.22 276.32 0 254.17 0C232.015 0 212.375 12.223 202.508 31.296C193.033 24.991 181.913 21.6 170.32 21.6C148.903 21.6 129.53 33.201 119.356 51.637C115.998 51.041 112.597 50.74 109.19 50.74C77.076 50.74 50.95 76.871 50.95 108.99C50.95 111.924 51.174 114.861 51.618 117.774C31.263 127.255 18 147.702 18 170.56C18 184.322 22.953 197.686 31.77 208.139C25.459 217.633 22.041 228.845 22.041 240.34C22.041 272.124 47.63 298.044 79.289 298.581C86.034 323.583 109.112 341.699 135.521 341.699C147.547 341.699 159.352 337.918 169.103 331.037L189.063 351.965C190.537 353.51 192.512 354.289 194.491 354.289C196.351 354.289 198.214 353.601 199.666 352.216C202.664 349.357 202.776 344.61 199.917 341.612L144.958 283.987C151.031 281.683 156.468 278.082 160.932 273.521L200.115 305.934C204.577 309.629 209.964 311.54 215.47 311.54C218.448 311.54 221.462 310.98 224.382 309.841C232.706 306.593 238.394 299.37 239.597 290.519L244.372 255.396C247.887 253.729 251.18 251.595 254.167 249.034C257.154 251.597 260.448 253.731 263.966 255.399L268.74 290.519C269.943 299.367 275.63 306.589 283.95 309.838C286.873 310.979 289.889 311.54 292.871 311.54C298.377 311.54 303.766 309.629 308.229 305.936L347.416 273.528C351.878 278.085 357.312 281.683 363.381 283.985L296.351 354.27C284.897 366.282 278.588 382.038 278.588 398.636V433.966C278.588 453.376 290.249 470.556 308.302 477.737C314.289 480.113 318.158 485.828 318.158 492.296V496.996H305.27C301.127 496.996 297.77 500.354 297.77 504.496C297.77 508.638 301.127 511.996 305.27 511.996H325.661C329.804 511.996 333.161 508.638 333.161 504.496V492.296C333.161 479.641 325.576 468.453 313.844 463.797C301.54 458.903 293.591 447.194 293.591 433.966V398.636C293.591 385.911 298.427 373.831 307.209 364.622L339.247 331.028C349.026 337.942 360.704 341.696 372.821 341.696C399.239 341.696 422.317 323.579 429.055 298.578C460.71 298.043 486.3 272.122 486.3 240.336C486.3 228.84 482.882 217.629 476.571 208.135C485.387 197.686 490.34 184.322 490.34 170.56Z" fill="black"/>
<path d="M270.272 496.998H190.182V492.298C190.182 485.832 194.055 480.118 200.055 477.737C218.096 470.56 229.753 453.38 229.753 433.968V398.638C229.753 388.952 227.517 379.235 223.288 370.538C221.476 366.813 216.987 365.262 213.263 367.073C209.538 368.885 207.987 373.373 209.799 377.098C213.04 383.763 214.754 391.212 214.754 398.638V433.968C214.754 447.198 206.808 458.907 194.517 463.797C182.772 468.458 175.184 479.645 175.184 492.298V504.498C175.184 508.64 178.542 511.998 182.684 511.998H270.274C274.417 511.998 277.774 508.64 277.774 504.498C277.774 500.356 274.414 496.998 270.272 496.998Z" fill="black"/>
<path d="M57.728 620.984C46.8053 620.984 37.4613 619.491 29.696 616.504C21.9307 613.432 16 608.995 11.904 603.192C7.808 597.389 5.76 590.349 5.76 582.072C5.76 573.795 7.808 566.755 11.904 560.952C16 555.149 21.9307 550.712 29.696 547.64C37.4613 544.568 46.8053 543.032 57.728 543.032C57.8987 543.032 58.1973 543.032 58.624 543.032C59.136 543.032 59.6053 543.032 60.032 543.032C60.544 543.032 60.8427 543.032 60.928 543.032C71.8507 543.032 81.152 544.568 88.832 547.64C96.5973 550.712 102.528 555.149 106.624 560.952C110.72 566.755 112.768 573.795 112.768 582.072C112.768 590.264 110.72 597.304 106.624 603.192C102.613 608.995 96.768 613.432 89.088 616.504C81.4933 619.491 72.2773 620.984 61.44 620.984C61.2693 620.984 60.8853 620.984 60.288 620.984C59.776 620.984 59.264 620.984 58.752 620.984C58.24 620.984 57.8987 620.984 57.728 620.984ZM59.136 611C59.3067 611 59.52 611 59.776 611C60.032 611 60.16 611 60.16 611C68.864 610.915 76.2027 609.805 82.176 607.672C88.1493 605.453 92.672 602.211 95.744 597.944C98.9013 593.592 100.48 588.259 100.48 581.944C100.48 575.715 98.9013 570.467 95.744 566.2C92.5867 561.933 88.0213 558.691 82.048 556.472C76.16 554.253 68.9493 553.144 60.416 553.144C60.3307 553.144 60.1173 553.144 59.776 553.144C59.52 553.144 59.3067 553.144 59.136 553.144C50.3467 553.144 42.88 554.253 36.736 556.472C30.6773 558.605 26.0693 561.805 22.912 566.072C19.7547 570.339 18.176 575.672 18.176 582.072C18.176 588.472 19.7973 593.805 23.04 598.072C26.2827 602.339 30.9333 605.581 36.992 607.8C43.136 609.933 50.5173 611 59.136 611ZM53.376 630.328V534.072H65.28V630.328H53.376ZM118.786 627L159.362 537.4H172.034L212.738 627H199.298L163.074 544.568H168.194L131.97 627H118.786ZM136.066 604.6L139.522 594.36H189.954L193.666 604.6H136.066ZM267.016 628.024C260.189 628.024 253.875 626.915 248.072 624.696C242.355 622.392 237.363 619.192 233.096 615.096C228.915 610.915 225.629 606.051 223.24 600.504C220.851 594.957 219.656 588.856 219.656 582.2C219.656 575.544 220.851 569.443 223.24 563.896C225.629 558.349 228.957 553.528 233.224 549.432C237.491 545.251 242.483 542.051 248.2 539.832C254.003 537.528 260.317 536.376 267.144 536.376C274.056 536.376 280.413 537.571 286.216 539.96C292.104 542.264 297.096 545.72 301.192 550.328L292.872 558.392C289.459 554.808 285.619 552.163 281.352 550.456C277.085 548.664 272.52 547.768 267.656 547.768C262.621 547.768 257.928 548.621 253.576 550.328C249.309 552.035 245.597 554.424 242.44 557.496C239.283 560.568 236.808 564.237 235.016 568.504C233.309 572.685 232.456 577.251 232.456 582.2C232.456 587.149 233.309 591.757 235.016 596.024C236.808 600.205 239.283 603.832 242.44 606.904C245.597 609.976 249.309 612.365 253.576 614.072C257.928 615.779 262.621 616.632 267.656 616.632C272.52 616.632 277.085 615.779 281.352 614.072C285.619 612.28 289.459 609.549 292.872 605.88L301.192 613.944C297.096 618.552 292.104 622.051 286.216 624.44C280.413 626.829 274.013 628.024 267.016 628.024ZM379.115 627L346.603 582.84L356.971 576.44L393.707 627H379.115ZM318.827 627V537.4H331.371V627H318.827ZM327.531 587.576V576.312H356.587V587.576H327.531ZM358.123 583.608L346.347 581.816L378.475 537.4H392.171L358.123 583.608ZM446.897 628.024C440.07 628.024 433.713 626.872 427.825 624.568C422.022 622.264 416.988 619.064 412.721 614.968C408.454 610.787 405.126 605.923 402.737 600.376C400.348 594.829 399.153 588.771 399.153 582.2C399.153 575.629 400.348 569.571 402.737 564.024C405.126 558.477 408.454 553.656 412.721 549.56C416.988 545.379 422.022 542.136 427.825 539.832C433.628 537.528 439.985 536.376 446.897 536.376C453.724 536.376 459.996 537.528 465.713 539.832C471.516 542.051 476.55 545.251 480.817 549.432C485.169 553.528 488.497 558.349 490.801 563.896C493.19 569.443 494.385 575.544 494.385 582.2C494.385 588.856 493.19 594.957 490.801 600.504C488.497 606.051 485.169 610.915 480.817 615.096C476.55 619.192 471.516 622.392 465.713 624.696C459.996 626.915 453.724 628.024 446.897 628.024ZM446.897 616.632C451.846 616.632 456.412 615.779 460.593 614.072C464.86 612.365 468.529 609.976 471.601 606.904C474.758 603.747 477.19 600.077 478.897 595.896C480.689 591.715 481.585 587.149 481.585 582.2C481.585 577.251 480.689 572.685 478.897 568.504C477.19 564.323 474.758 560.696 471.601 557.624C468.529 554.467 464.86 552.035 460.593 550.328C456.412 548.621 451.846 547.768 446.897 547.768C441.862 547.768 437.212 548.621 432.945 550.328C428.764 552.035 425.094 554.467 421.937 557.624C418.78 560.696 416.305 564.323 414.513 568.504C412.806 572.685 411.953 577.251 411.953 582.2C411.953 587.149 412.806 591.715 414.513 595.896C416.305 600.077 418.78 603.747 421.937 606.904C425.094 609.976 428.764 612.365 432.945 614.072C437.212 615.779 441.862 616.632 446.897 616.632Z" fill="black"/>
</svg>
